<svg xmlns="http://www.w3.org/2000/svg" viewBox="0 0 1000 1000">
  <style>
    path { fill: #15140f; }
    @media (prefers-color-scheme: dark) {
      path { fill: #f7f5f0; }
    }
  </style>
  <path d="M 492 95.127 C 483.356 100.360, 458.161 131.857, 442.113 157.493 C 424.212 186.089, 414.264 204.182, 405.546 224 C 403.006 229.775, 400.088 236.075, 399.062 238 C 398.036 239.925, 395.817 245.431, 394.131 250.235 C 392.446 255.039, 390.436 260.214, 389.666 261.735 C 387.714 265.586, 378.250 293.732, 375.959 302.500 C 375.527 304.150, 374.039 309.775, 372.652 315 C 371.264 320.225, 369.376 328.325, 368.455 333 C 367.534 337.675, 366.130 344.650, 365.336 348.500 C 364.541 352.350, 363.509 358.134, 363.043 361.353 C 361.613 371.208, 360.683 371.213, 344.500 361.448 C 319.609 346.428, 290.044 330.785, 267.500 320.707 C 262 318.248, 254.800 315.006, 251.500 313.503 C 230.240 303.818, 197.409 292.253, 152 278.453 C 146.831 276.882, 131.183 273.033, 119.500 270.460 C 115.100 269.491, 107.450 267.677, 102.500 266.429 C 97.550 265.182, 87.650 263.204, 80.500 262.034 C 73.350 260.863, 65.475 259.504, 63 259.013 C 42.633 254.969, 24.195 252.576, 18.885 253.289 C 13.756 253.977, 10.099 256.516, 7.676 261.071 C 6.014 264.197, 5.909 266.356, 6.492 285.500 C 7.152 307.157, 7.933 316.920, 10.451 335 C 14.764 365.972, 17.291 377.941, 26.180 409.500 C 28.969 419.400, 31.599 428.850, 32.026 430.500 C 34.684 440.783, 48.591 476.065, 58.040 496.500 C 68.440 518.989, 72.990 527.748, 81.949 542.517 C 86.747 550.428, 89.473 554.568, 98.481 567.620 C 99.666 569.336, 104.204 575.358, 108.567 581.001 C 141.605 623.731, 179.399 657.216, 224.064 683.329 C 232.656 688.353, 264.002 704, 265.474 704 C 265.799 704, 270.663 705.746, 276.283 707.880 C 281.902 710.015, 291 712.986, 296.500 714.484 C 302 715.982, 308.525 717.808, 311 718.542 C 313.475 719.276, 317.975 720.319, 321 720.858 C 324.025 721.397, 329.200 722.376, 332.500 723.033 C 338.964 724.320, 346.571 725.410, 360 726.974 C 370.651 728.215, 397.986 728.199, 408.250 726.946 C 427.473 724.599, 430.799 724.143, 435.500 723.204 C 438.250 722.654, 443.650 721.655, 447.500 720.983 C 455.440 719.598, 475.820 713.063, 483.875 709.321 C 494.916 704.190, 496.633 703.850, 503.069 705.518 C 506.278 706.349, 511.063 707.957, 513.702 709.091 C 522.999 713.085, 540.735 719.049, 548.500 720.791 C 554.606 722.162, 567.904 724.518, 578 726.019 C 589.817 727.776, 622.126 728.395, 634 727.092 C 670.662 723.068, 693.958 717.759, 723.500 706.695 C 749.967 696.782, 767.400 687.800, 794.500 670.113 C 825.793 649.689, 866.529 612.110, 886.762 585 C 889.019 581.975, 894.086 575.225, 898.021 570 C 914.936 547.539, 936.816 506.733, 949.944 473.163 C 965.452 433.512, 971.325 414.233, 980.003 374.500 C 980.917 370.312, 983.217 357.712, 984.931 347.500 C 986.903 335.744, 989.465 307.114, 990.576 284.390 C 991.378 268.006, 990.330 261.642, 986.179 257.682 C 979.983 251.773, 972.875 251.579, 945.500 256.575 C 915.681 262.016, 909.697 263.141, 903 264.561 C 891.108 267.082, 882.173 269.134, 862.500 273.865 C 847.182 277.549, 781.207 298.477, 772.500 302.414 C 770.850 303.160, 766.575 304.768, 763 305.986 C 759.425 307.204, 752.675 309.915, 748 312.011 C 743.325 314.106, 733.875 318.296, 727 321.322 C 716.430 325.974, 691.016 338.756, 686 341.944 C 685.175 342.468, 681.350 344.799, 677.500 347.123 C 673.650 349.448, 663.793 355.612, 655.594 360.822 C 638.883 371.441, 638.343 371.514, 636.408 363.417 C 634.704 356.286, 629.218 331.931, 628.654 329 C 626.293 316.713, 617.984 289.727, 608.179 262.500 C 594.448 224.369, 578.009 191.776, 553.453 154 C 544.765 140.634, 522.341 111.744, 512.054 100.663 C 504.594 92.628, 498.779 91.022, 492 95.127 M 493.845 159.750 C 488.362 165.710, 470.149 194.926, 459.057 215.554 C 445.224 241.280, 436.581 259.685, 429.969 277.500 C 421.912 299.209, 421.078 301.688, 417.191 315.500 C 410.745 338.402, 409.104 346.479, 406.013 370.500 C 404.881 379.300, 403.515 389.512, 402.977 393.193 C 402.440 396.874, 402 412.208, 402 427.269 C 402 458.593, 402.905 467.379, 409.543 500.500 C 411.869 512.107, 421.413 539.588, 428.470 555 C 435.667 570.717, 442.708 583.136, 452.848 598 C 463.005 612.889, 465.996 616.714, 477.093 629 C 492.742 646.326, 496.524 650, 498.709 650 C 500.562 650, 513.972 636.496, 529.100 619.397 C 535.606 612.044, 546.469 596.953, 554.580 584 C 560.338 574.806, 571 554.128, 571 552.155 C 571 551.622, 572.340 548.201, 573.977 544.551 C 577.995 535.597, 585.327 513.544, 587.959 502.500 C 589.139 497.550, 590.496 491.925, 590.976 490 C 593.012 481.830, 594.095 471.851, 595.120 451.802 C 596.848 418, 595.085 379.281, 591.031 362 C 590.580 360.075, 589.462 354.450, 588.547 349.500 C 585.723 334.215, 581.229 317.506, 574.861 298.615 C 571.502 288.652, 568.150 279.150, 567.412 277.500 C 566.674 275.850, 564.521 270.409, 562.628 265.409 C 552.285 238.084, 519.796 180.018, 504.630 161.750 C 500.045 156.226, 497.517 155.758, 493.845 159.750 M 54.111 305.794 C 53.500 306.935, 53 310.184, 53 313.014 C 53 318.313, 55.674 341.347, 56.595 343.978 C 56.879 344.791, 57.528 348.391, 58.037 351.978 C 58.546 355.565, 59.380 360.300, 59.890 362.500 C 60.401 364.700, 61.497 369.425, 62.326 373 C 73.981 423.255, 88.013 460.200, 114.699 510.894 C 118.144 517.439, 129.703 534.772, 142.380 552.402 C 167.335 587.109, 209.189 623.558, 250.500 646.562 C 266.235 655.323, 291.863 666.637, 302.473 669.506 C 305.513 670.328, 310.588 671.728, 313.750 672.617 C 319.904 674.348, 320.993 674.598, 336.795 677.903 C 366.775 684.173, 413.157 683.100, 443 675.445 C 450.403 673.546, 453 672.370, 453 670.917 C 453 670.360, 450.794 667.699, 448.098 665.003 C 436.787 653.692, 419.300 631.230, 407.703 613.116 C 399.951 601.007, 386.420 574.124, 382.478 563 C 374.614 540.806, 371.631 531.499, 369.335 522 C 364.346 501.361, 363.918 499.419, 362.943 493 C 362.400 489.425, 361.674 485.600, 361.330 484.500 C 360.454 481.698, 359.241 467.605, 358.061 446.500 L 357.054 428.500 351.777 423.664 C 336.853 409.988, 269.050 369.387, 243 358.526 C 237.598 356.274, 230.201 353.040, 223.805 350.133 C 221.223 348.960, 218.748 348.001, 218.305 348.002 C 217.862 348.003, 213.225 346.234, 208 344.072 C 196.011 339.109, 177.278 332.506, 169.647 330.553 C 166.427 329.730, 160.577 327.930, 156.647 326.555 C 152.716 325.180, 144.325 322.655, 138 320.945 C 131.675 319.235, 124.025 317.160, 121 316.334 C 117.975 315.508, 113.700 314.484, 111.500 314.059 C 109.300 313.634, 103.675 312.307, 99 311.111 C 83.985 307.270, 71.707 304.929, 63.361 304.316 C 55.824 303.763, 55.139 303.872, 54.111 305.794 M 930.500 304.687 C 917.039 306.424, 889.131 312.550, 874 317.088 C 868.775 318.655, 859.775 321.258, 854 322.871 C 823.815 331.306, 787.366 344.052, 761.517 355.212 C 744.050 362.753, 693.507 389.943, 682.345 397.803 C 680.780 398.905, 674.325 403.155, 668 407.249 C 654.589 415.928, 642.924 424.569, 641.500 426.878 C 640.950 427.770, 639.967 437.725, 639.316 449 C 637.411 481.992, 634.414 499.158, 624.825 532 C 619.509 550.205, 617.796 554.690, 605.537 582.500 C 592.088 613.011, 575.966 637.251, 552.838 661.740 C 549.077 665.722, 546 669.604, 546 670.367 C 546 672.426, 547.883 673.586, 554 675.298 C 566.855 678.895, 577.179 680.277, 596 680.918 C 650.184 682.764, 681.193 676.689, 730.227 654.623 C 741.754 649.436, 760.376 638.258, 776 627.148 C 787.764 618.783, 790.244 616.901, 798.576 610.017 C 809.035 601.376, 846.225 564.211, 852.305 556.324 C 859.346 547.192, 868.596 533.972, 874.573 524.500 C 877.697 519.550, 881.476 513.700, 882.971 511.500 C 886.367 506.503, 900.401 477.842, 905.984 464.500 C 908.286 459, 910.795 453.106, 911.560 451.402 C 914.035 445.885, 924.378 415.545, 927.548 404.500 C 931.684 390.088, 933.857 381.908, 934.985 376.500 C 935.673 373.200, 936.831 367.800, 937.559 364.500 C 938.975 358.074, 941.191 344.478, 942.937 331.500 C 944.393 320.681, 944.320 306.720, 942.800 305.200 C 941.652 304.052, 936.939 303.856, 930.500 304.687 M 487.906 797.407 C 487.579 797.745, 481.504 798.460, 474.406 798.996 C 467.308 799.531, 459.025 800.455, 456 801.049 C 435.138 805.142, 427.435 806.928, 416.500 810.209 C 400.079 815.134, 375.047 823.553, 366.500 827.024 C 357.573 830.650, 335.956 837.343, 326 839.564 C 306.416 843.933, 291.904 845.325, 266 845.320 C 244.755 845.316, 238.247 844.956, 227 843.162 C 193.385 837.799, 174.792 830.863, 152 815.186 C 136.030 804.201, 128.737 802.126, 120 806.081 C 108.613 811.235, 103.137 822.117, 106.370 833.166 C 108.220 839.488, 112.065 844.400, 119.817 850.345 C 125.500 854.703, 143.256 866, 144.423 866 C 144.763 866, 148.969 867.849, 153.771 870.108 C 166.022 875.874, 165.198 875.550, 178.946 879.985 C 185.792 882.193, 192.625 884, 194.131 884 C 195.637 884, 198.137 884.494, 199.685 885.097 C 202.657 886.254, 206.948 887.054, 224 889.628 C 239.786 892.010, 288.775 892.641, 300 890.606 C 304.675 889.759, 310.075 888.847, 312 888.580 C 319.526 887.537, 329.006 885.633, 340.500 882.856 C 348.435 880.939, 387.698 868.198, 403 862.575 C 416.479 857.621, 433.622 852.375, 442.500 850.487 C 446.900 849.551, 451.534 848.384, 452.797 847.893 C 454.060 847.402, 456.575 847, 458.384 847 C 460.194 847, 466.135 846.328, 471.587 845.506 C 494.609 842.036, 533.503 844.398, 557.500 850.723 C 564.980 852.695, 587.638 859.772, 591 861.187 C 599.964 864.960, 656.761 883.097, 662.421 883.995 C 666.227 884.599, 669.759 885.351, 670.271 885.667 C 670.782 885.983, 673.742 886.611, 676.850 887.062 C 679.957 887.514, 687.225 888.627, 693 889.536 C 706.518 891.663, 759.451 892.721, 767.266 891.019 C 770.145 890.393, 775.650 889.461, 779.500 888.949 C 793.595 887.076, 818.611 880.990, 826.500 877.515 C 828.150 876.788, 832.875 874.944, 837 873.417 C 843.397 871.048, 858.037 864.105, 863 861.086 C 863.825 860.584, 868.059 858.033, 872.409 855.417 C 887.285 846.469, 892.939 839.624, 893.745 829.587 C 894.313 822.518, 892.716 818.446, 886.591 811.345 C 878.760 802.267, 864.810 801.671, 854 809.954 C 840.715 820.134, 825.438 828.499, 809.989 834.055 C 791.364 840.752, 770.006 844.578, 745.500 845.606 C 730.932 846.217, 706.370 844.972, 695 843.046 C 674.822 839.628, 670.224 838.777, 668 838.046 C 666.625 837.595, 662.575 836.438, 659 835.477 C 646.751 832.182, 640.492 830.155, 633.250 827.136 C 626.655 824.386, 591.407 812.625, 578 808.700 C 572.553 807.105, 556.075 803.312, 544.500 800.987 C 533.187 798.716, 489.322 795.940, 487.906 797.407" fill-rule="evenodd" />
</svg>
